<svg width="335" height="172" viewBox="0 0 335 172" fill="none" xmlns="http://www.w3.org/2000/svg">
<path d="M94.3896 15V6.5918H94.2725L88.5596 15H87.2559V4.43115H88.5596V12.8687H88.6768L94.3896 4.43115H95.6934V15H94.3896ZM99.7217 11.6382C99.5679 13.7402 99.0625 15.0659 97.4585 15.0659C97.2388 15.0659 97.0923 15.022 97.0044 14.9854V13.8354C97.0703 13.8574 97.2095 13.894 97.3926 13.894C98.147 13.894 98.4326 13.0078 98.5278 11.6089L98.8208 7.38281H103.809V15H102.549V8.43018H99.9561L99.7217 11.6382ZM106.87 15H105.61V7.38281H106.87V13.0518H106.929L110.737 7.38281H111.997V15H110.737V9.33105H110.679L106.87 15ZM119.944 8.41553H118.12V10.5469H119.753C120.713 10.5469 121.174 10.1953 121.174 9.46289C121.174 8.78906 120.742 8.41553 119.944 8.41553ZM119.856 11.5723H118.12V13.9673H120.083C121.006 13.9673 121.504 13.5498 121.504 12.7808C121.504 11.9678 120.969 11.5723 119.856 11.5723ZM116.86 15V7.38281H120.12C121.548 7.38281 122.419 8.12256 122.419 9.33105C122.419 10.1074 121.87 10.8252 121.167 10.9717V11.0303C122.126 11.1621 122.756 11.8579 122.756 12.8101C122.756 14.1577 121.76 15 120.142 15H116.86ZM127.378 15.1318C125.269 15.1318 123.848 13.6157 123.848 11.1914C123.848 8.75977 125.269 7.25098 127.378 7.25098C129.48 7.25098 130.901 8.75977 130.901 11.1914C130.901 13.6157 129.48 15.1318 127.378 15.1318ZM127.378 14.0112C128.726 14.0112 129.604 12.9858 129.604 11.1914C129.604 9.39697 128.726 8.37158 127.378 8.37158C126.03 8.37158 125.144 9.39697 125.144 11.1914C125.144 12.9858 126.03 14.0112 127.378 14.0112ZM133.574 15H132.314V7.38281H133.574V13.0518H133.633L137.441 7.38281H138.701V15H137.441V9.33105H137.383L133.574 15ZM133.289 4.08691H134.226C134.226 4.93652 134.775 5.60303 135.647 5.60303C136.519 5.60303 137.068 4.93652 137.068 4.08691H138.005C138.005 5.43457 137.046 6.35742 135.647 6.35742C134.248 6.35742 133.289 5.43457 133.289 4.08691ZM145.542 13.9526V8.43018H142.686L142.451 11.6382C142.385 12.583 142.188 13.4106 141.829 13.894V13.9526H145.542ZM140.92 17.0142H139.734V13.9526H140.371C140.928 13.5864 141.199 12.6343 141.272 11.6089L141.565 7.38281H146.809V13.9526H148.018V17.0142H146.831V15H140.92V17.0142ZM150.42 15H149.16V7.38281H150.42V13.0518H150.479L154.287 7.38281H155.547V15H154.287V9.33105H154.229L150.42 15ZM162.908 7.38281V8.43018H160.447V15H159.187V8.43018H156.726V7.38281H162.908ZM167.002 8.35693C165.808 8.35693 164.973 9.27246 164.893 10.5396H169.031C169.001 9.26514 168.203 8.35693 167.002 8.35693ZM169.001 12.8174H170.254C170.034 14.1504 168.745 15.1318 167.083 15.1318C164.9 15.1318 163.574 13.6157 163.574 11.2207C163.574 8.85498 164.922 7.25098 167.024 7.25098C169.082 7.25098 170.349 8.74512 170.349 11.0522V11.5356H164.885V11.6089C164.885 13.0664 165.742 14.0259 167.112 14.0259C168.079 14.0259 168.789 13.5352 169.001 12.8174ZM181.145 9.72656H179.885C179.666 8.99414 179.043 8.37158 177.966 8.37158C176.641 8.37158 175.769 9.49219 175.769 11.1914C175.769 12.9346 176.655 14.0112 177.981 14.0112C178.992 14.0112 179.658 13.5132 179.9 12.6709H181.16C180.911 14.1138 179.688 15.1318 177.974 15.1318C175.857 15.1318 174.473 13.6157 174.473 11.1914C174.473 8.81836 175.85 7.25098 177.959 7.25098C179.797 7.25098 180.918 8.43018 181.145 9.72656ZM190.505 15V8.43018H186.821V15H185.562V7.38281H191.772V15H190.505ZM196.724 15.1318C194.614 15.1318 193.193 13.6157 193.193 11.1914C193.193 8.75977 194.614 7.25098 196.724 7.25098C198.826 7.25098 200.247 8.75977 200.247 11.1914C200.247 13.6157 198.826 15.1318 196.724 15.1318ZM196.724 14.0112C198.071 14.0112 198.95 12.9858 198.95 11.1914C198.95 9.39697 198.071 8.37158 196.724 8.37158C195.376 8.37158 194.49 9.39697 194.49 11.1914C194.49 12.9858 195.376 14.0112 196.724 14.0112ZM202.92 15H201.66V7.38281H203.206L205.916 13.3154H205.974L208.699 7.38281H210.186V15H208.918V9.59473H208.867L206.406 14.7803H205.432L202.971 9.59473H202.92V15ZM215.137 15.1318C213.027 15.1318 211.606 13.6157 211.606 11.1914C211.606 8.75977 213.027 7.25098 215.137 7.25098C217.239 7.25098 218.66 8.75977 218.66 11.1914C218.66 13.6157 217.239 15.1318 215.137 15.1318ZM215.137 14.0112C216.484 14.0112 217.363 12.9858 217.363 11.1914C217.363 9.39697 216.484 8.37158 215.137 8.37158C213.789 8.37158 212.903 9.39697 212.903 11.1914C212.903 12.9858 213.789 14.0112 215.137 14.0112ZM230.686 17.0142H229.5V15H220.073V7.38281H221.333V13.9526H224.146V7.38281H225.405V13.9526H228.218V7.38281H229.478V13.9526H230.686V17.0142ZM234.502 10.8618H233.081V13.9526H234.502C235.491 13.9526 236.128 13.3374 236.128 12.4072C236.128 11.4697 235.483 10.8618 234.502 10.8618ZM231.821 15V7.38281H233.081V9.81445H234.524C236.267 9.81445 237.388 10.8179 237.388 12.4072C237.388 13.9966 236.267 15 234.524 15H231.821ZM244.858 15.1318C242.837 15.1318 241.548 13.7915 241.409 11.5723H240.039V15H238.779V7.38281H240.039V10.5249H241.438C241.665 8.47412 242.925 7.25098 244.858 7.25098C246.997 7.25098 248.315 8.73779 248.315 11.1914C248.315 13.6377 246.997 15.1318 244.858 15.1318ZM244.858 14.0039C246.235 14.0039 247.012 12.9785 247.012 11.1914C247.012 9.39697 246.235 8.37891 244.858 8.37891C243.481 8.37891 242.705 9.39697 242.705 11.1914C242.705 12.9785 243.481 14.0039 244.858 14.0039Z" fill="#939396"/>
<rect x="0.5" y="36.5" width="334" height="59" rx="11.5" fill="white" stroke="#EBEBEB"/>
<g clip-path="url(#clip0_17_404)">
<path d="M100.5 50H132.5V82H100.5V50Z" fill="#0077FF"/>
<path fill-rule="evenodd" clip-rule="evenodd" d="M108.571 58.6222C107.611 59.76 107.611 61.4666 107.611 64.9155V67.0666C107.611 70.4978 107.611 72.2222 108.571 73.36C108.731 73.5733 108.927 73.7511 109.104 73.9111C110.26 74.8711 111.984 74.8711 115.416 74.8711H117.567C120.998 74.8711 122.722 74.8711 123.86 73.9111C124.073 73.7511 124.251 73.5555 124.411 73.3778C125.371 72.2222 125.371 70.4978 125.371 67.0666V64.9333C125.371 61.5022 125.371 59.7778 124.411 58.64C124.251 58.4266 124.056 58.2489 123.878 58.0711C122.722 57.1111 120.998 57.1111 117.567 57.1111H115.433C112.002 57.1111 110.278 57.1111 109.14 58.0533C108.927 58.2311 108.749 58.4089 108.589 58.6222H108.571ZM110.633 63.2978C110.722 64.5244 111.131 65.8578 111.7 66.7644C112.749 68.4889 114.349 69.3778 116.678 69.5022L117.069 69.5378V66.9778L117.353 67.0133C118.473 67.1555 119.611 68.0444 120.091 69.1822L120.233 69.5378H120.589C121.176 69.5378 122.278 69.5733 122.278 69.5378C122.06 68.7967 121.696 68.1067 121.207 67.5083C120.719 66.9099 120.116 66.4152 119.433 66.0533L119.291 65.9644L119.522 65.7866C120.666 65.0633 121.492 63.9321 121.833 62.6222V62.4444H119.967L119.824 62.8C119.469 63.6889 118.633 64.6489 117.904 65.0044C117.638 65.1289 117.371 65.2 117.069 65.2355V62.4444H115.344V67.3689L115.078 67.28C114.367 67.0133 113.691 66.3555 113.282 65.5733C112.927 64.9155 112.678 63.8666 112.607 62.9422L112.589 62.4444H110.58L110.651 63.2978H110.633Z" fill="white"/>
</g>
<path d="M149.845 72V59.9141H153.97C155.215 59.9141 156.192 60.1714 156.9 60.686C157.609 61.2007 157.963 62.0059 157.963 63.1016C157.963 63.7712 157.8 64.319 157.473 64.7451C157.152 65.1657 156.751 65.459 156.27 65.625V65.6582C156.856 65.8298 157.338 66.1562 157.714 66.6377C158.096 67.1136 158.287 67.7445 158.287 68.5303C158.287 69.6315 157.913 70.4865 157.166 71.0952C156.424 71.6984 155.442 72 154.219 72H149.845ZM151.704 70.5474H154.178C154.947 70.5474 155.511 70.362 155.871 69.9912C156.231 69.6149 156.411 69.1113 156.411 68.4805C156.411 67.8496 156.231 67.3488 155.871 66.978C155.511 66.6073 154.947 66.4219 154.178 66.4219H151.704V70.5474ZM151.704 65.019H153.937C154.701 65.019 155.251 64.8558 155.589 64.5293C155.926 64.2028 156.095 63.7518 156.095 63.1763C156.095 62.5952 155.926 62.1497 155.589 61.8398C155.251 61.5299 154.701 61.375 153.937 61.375H151.704V65.019ZM159.714 67.7998V67.5342C159.714 66.2116 160.099 65.1408 160.868 64.3218C161.637 63.5028 162.656 63.0933 163.923 63.0933C165.196 63.0933 166.217 63.5028 166.986 64.3218C167.755 65.1408 168.14 66.2116 168.14 67.5342V67.7998C168.14 69.1224 167.755 70.1932 166.986 71.0122C166.217 71.8312 165.196 72.2407 163.923 72.2407C162.656 72.2407 161.637 71.8312 160.868 71.0122C160.099 70.1932 159.714 69.1224 159.714 67.7998ZM161.582 67.4927V67.8413C161.582 68.7101 161.781 69.4212 162.18 69.9746C162.578 70.5225 163.159 70.7964 163.923 70.7964C164.692 70.7964 165.273 70.5225 165.666 69.9746C166.064 69.4212 166.264 68.7101 166.264 67.8413V67.4927C166.264 66.6239 166.064 65.9155 165.666 65.3677C165.268 64.8143 164.687 64.5376 163.923 64.5376C163.159 64.5376 162.578 64.8143 162.18 65.3677C161.781 65.9155 161.582 66.6239 161.582 67.4927ZM169.949 72V63.334H171.759V68.3477C171.759 68.5137 171.756 68.7046 171.75 68.9204C171.745 69.1362 171.737 69.3271 171.726 69.4932H171.809C171.886 69.3548 171.972 69.2026 172.066 69.0366C172.16 68.8706 172.262 68.6935 172.373 68.5054L175.519 63.334H177.362V72H175.544V66.9863C175.544 66.8148 175.547 66.6211 175.552 66.4053C175.563 66.1839 175.574 65.9875 175.585 65.8159H175.478C175.406 65.9598 175.323 66.1175 175.229 66.2891C175.14 66.4551 175.04 66.6349 174.93 66.8286L171.784 72H169.949ZM173.66 60.7109C174.053 60.7109 174.382 60.6003 174.647 60.3789C174.913 60.152 175.118 59.7868 175.262 59.2832L176.54 59.9722C176.28 60.6805 175.895 61.1951 175.386 61.5161C174.877 61.8315 174.302 61.9893 173.66 61.9893C173.012 61.9893 172.437 61.8343 171.933 61.5244C171.435 61.209 171.05 60.6916 170.779 59.9722L172.091 59.2583C172.24 59.7951 172.442 60.1714 172.697 60.3872C172.951 60.603 173.272 60.7109 173.66 60.7109ZM178.765 64.7451V63.334H185.961V64.7451H183.28V72H181.446V64.7451H178.765ZM187.381 72V63.334H189.19V68.3477C189.19 68.5137 189.188 68.7046 189.182 68.9204C189.177 69.1362 189.168 69.3271 189.157 69.4932H189.24C189.318 69.3548 189.403 69.2026 189.498 69.0366C189.592 68.8706 189.694 68.6935 189.805 68.5054L192.951 63.334H194.793V72H192.976V66.9863C192.976 66.8148 192.978 66.6211 192.984 66.4053C192.995 66.1839 193.006 65.9875 193.017 65.8159H192.909C192.837 65.9598 192.754 66.1175 192.66 66.2891C192.572 66.4551 192.472 66.6349 192.361 66.8286L189.215 72H187.381ZM200.704 67.7998V67.5342C200.704 66.2061 201.074 65.1353 201.816 64.3218C202.557 63.5028 203.565 63.0933 204.837 63.0933C206.027 63.0933 206.932 63.4032 207.552 64.0229C208.172 64.6427 208.487 65.3594 208.498 66.1729L208.506 66.2559H206.73V66.1895C206.73 65.7357 206.575 65.3455 206.265 65.019C205.961 64.6925 205.482 64.5293 204.829 64.5293C204.065 64.5293 203.498 64.8088 203.127 65.3677C202.757 65.9211 202.571 66.6294 202.571 67.4927V67.8413C202.571 68.6991 202.754 69.4102 203.119 69.9746C203.49 70.5335 204.06 70.813 204.829 70.813C205.499 70.813 205.983 70.647 206.282 70.3149C206.581 69.9774 206.73 69.5845 206.73 69.1362V69.0781H208.506V69.1445C208.506 69.9525 208.191 70.6719 207.56 71.3027C206.935 71.9281 206.027 72.2407 204.837 72.2407C203.565 72.2407 202.557 71.834 201.816 71.0205C201.074 70.2015 200.704 69.1279 200.704 67.7998ZM213.03 59.9141H215.056L218.152 68.6631C218.213 68.8346 218.263 68.9896 218.301 69.1279C218.34 69.2663 218.382 69.4185 218.426 69.5845H218.5C218.545 69.4185 218.589 69.2663 218.633 69.1279C218.678 68.9896 218.727 68.8346 218.783 68.6631L221.92 59.9141H223.796L219.339 72.0664H217.488L213.03 59.9141ZM225.066 72V59.9141H226.951V65.5337L231.956 59.9141H234.131L226.951 67.833V72H225.066ZM232.271 72L227.772 65.874L228.984 64.5376L234.579 72H232.271Z" fill="black"/>
<rect x="0.5" y="112.5" width="334" height="59" rx="11.5" fill="white" stroke="#EBEBEB"/>
<path d="M89.17 126C86.029 126 83.5 128.529 83.5 131.67V152.33C83.5 155.471 86.029 158 89.17 158H104.376L115.5 142.004L104.376 126H89.17V126ZM97.685 131.842H101.298C101.52 131.842 101.647 131.923 101.647 132.114V152.026C101.647 152.161 101.583 152.243 101.393 152.243H99.428C99.3021 152.243 99.207 152.134 99.207 152.053V144.681H97.621L93.216 152.053C93.1528 152.189 93.0262 152.243 92.836 152.243H90.586C90.3332 152.243 90.1746 152.053 90.333 151.808L95.181 144.3C92.583 143.321 91.125 141.335 91.125 138.642C91.125 134.154 94.1359 131.842 97.685 131.842L97.685 131.842ZM97.59 133.582C95.6568 133.582 93.755 134.969 93.755 138.37C93.755 141.634 95.7834 142.94 97.875 142.94H99.207V133.582H97.59Z" fill="#FFC107"/>
<path d="M132.845 148V135.914H136.97C138.215 135.914 139.192 136.171 139.9 136.686C140.609 137.201 140.963 138.006 140.963 139.102C140.963 139.771 140.8 140.319 140.473 140.745C140.152 141.166 139.751 141.459 139.27 141.625V141.658C139.856 141.83 140.338 142.156 140.714 142.638C141.096 143.114 141.287 143.744 141.287 144.53C141.287 145.632 140.913 146.486 140.166 147.095C139.424 147.698 138.442 148 137.219 148H132.845ZM134.704 146.547H137.178C137.947 146.547 138.511 146.362 138.871 145.991C139.231 145.615 139.411 145.111 139.411 144.48C139.411 143.85 139.231 143.349 138.871 142.978C138.511 142.607 137.947 142.422 137.178 142.422H134.704V146.547ZM134.704 141.019H136.937C137.701 141.019 138.251 140.856 138.589 140.529C138.926 140.203 139.095 139.752 139.095 139.176C139.095 138.595 138.926 138.15 138.589 137.84C138.251 137.53 137.701 137.375 136.937 137.375H134.704V141.019ZM142.714 143.8V143.534C142.714 142.212 143.099 141.141 143.868 140.322C144.637 139.503 145.656 139.093 146.923 139.093C148.196 139.093 149.217 139.503 149.986 140.322C150.755 141.141 151.14 142.212 151.14 143.534V143.8C151.14 145.122 150.755 146.193 149.986 147.012C149.217 147.831 148.196 148.241 146.923 148.241C145.656 148.241 144.637 147.831 143.868 147.012C143.099 146.193 142.714 145.122 142.714 143.8ZM144.582 143.493V143.841C144.582 144.71 144.781 145.421 145.18 145.975C145.578 146.522 146.159 146.796 146.923 146.796C147.692 146.796 148.273 146.522 148.666 145.975C149.064 145.421 149.264 144.71 149.264 143.841V143.493C149.264 142.624 149.064 141.916 148.666 141.368C148.268 140.814 147.687 140.538 146.923 140.538C146.159 140.538 145.578 140.814 145.18 141.368C144.781 141.916 144.582 142.624 144.582 143.493ZM152.949 148V139.334H154.759V144.348C154.759 144.514 154.756 144.705 154.75 144.92C154.745 145.136 154.737 145.327 154.726 145.493H154.809C154.886 145.355 154.972 145.203 155.066 145.037C155.16 144.871 155.262 144.694 155.373 144.505L158.519 139.334H160.362V148H158.544V142.986C158.544 142.815 158.547 142.621 158.552 142.405C158.563 142.184 158.574 141.987 158.585 141.816H158.478C158.406 141.96 158.323 142.118 158.229 142.289C158.14 142.455 158.04 142.635 157.93 142.829L154.784 148H152.949ZM156.66 136.711C157.053 136.711 157.382 136.6 157.647 136.379C157.913 136.152 158.118 135.787 158.262 135.283L159.54 135.972C159.28 136.681 158.895 137.195 158.386 137.516C157.877 137.832 157.302 137.989 156.66 137.989C156.012 137.989 155.437 137.834 154.933 137.524C154.435 137.209 154.05 136.692 153.779 135.972L155.091 135.258C155.24 135.795 155.442 136.171 155.697 136.387C155.951 136.603 156.272 136.711 156.66 136.711ZM161.765 140.745V139.334H168.961V140.745H166.28V148H164.446V140.745H161.765ZM170.381 148V139.334H172.19V144.348C172.19 144.514 172.188 144.705 172.182 144.92C172.177 145.136 172.168 145.327 172.157 145.493H172.24C172.318 145.355 172.403 145.203 172.498 145.037C172.592 144.871 172.694 144.694 172.805 144.505L175.951 139.334H177.793V148H175.976V142.986C175.976 142.815 175.978 142.621 175.984 142.405C175.995 142.184 176.006 141.987 176.017 141.816H175.909C175.837 141.96 175.754 142.118 175.66 142.289C175.572 142.455 175.472 142.635 175.361 142.829L172.215 148H170.381ZM183.704 143.8V143.534C183.704 142.206 184.074 141.135 184.816 140.322C185.557 139.503 186.565 139.093 187.837 139.093C189.027 139.093 189.932 139.403 190.552 140.023C191.172 140.643 191.487 141.359 191.498 142.173L191.506 142.256H189.73V142.189C189.73 141.736 189.575 141.346 189.265 141.019C188.961 140.693 188.482 140.529 187.829 140.529C187.065 140.529 186.498 140.809 186.127 141.368C185.757 141.921 185.571 142.629 185.571 143.493V143.841C185.571 144.699 185.754 145.41 186.119 145.975C186.49 146.534 187.06 146.813 187.829 146.813C188.499 146.813 188.983 146.647 189.282 146.315C189.581 145.977 189.73 145.584 189.73 145.136V145.078H191.506V145.145C191.506 145.952 191.191 146.672 190.56 147.303C189.935 147.928 189.027 148.241 187.837 148.241C186.565 148.241 185.557 147.834 184.816 147.021C184.074 146.201 183.704 145.128 183.704 143.8ZM200.297 148V143.534L196.146 135.914H198.255L200.845 140.828C200.928 140.989 201.002 141.141 201.069 141.285C201.141 141.423 201.204 141.567 201.26 141.716H201.318C201.373 141.567 201.434 141.423 201.5 141.285C201.572 141.141 201.653 140.989 201.741 140.828L204.356 135.914H206.307L202.189 143.493V148H200.297ZM205.817 145.452C205.817 144.55 206.171 143.855 206.879 143.368C207.593 142.876 208.498 142.629 209.594 142.629H211.478V142.057C211.478 141.581 211.354 141.196 211.104 140.903C210.855 140.604 210.427 140.455 209.818 140.455C209.215 140.455 208.78 140.579 208.515 140.828C208.255 141.072 208.125 141.362 208.125 141.7V141.783H206.315V141.691C206.315 140.978 206.639 140.366 207.286 139.857C207.934 139.348 208.8 139.093 209.884 139.093C210.963 139.093 211.802 139.34 212.399 139.832C213.003 140.319 213.304 141.063 213.304 142.065V146.024C213.304 146.379 213.332 146.716 213.387 147.037C213.448 147.353 213.531 147.629 213.636 147.867V148H211.852C211.78 147.867 211.713 147.693 211.652 147.477C211.591 147.256 211.553 147.04 211.536 146.83C211.342 147.178 211.013 147.488 210.548 147.759C210.089 148.025 209.502 148.158 208.789 148.158C207.953 148.158 207.247 147.928 206.672 147.469C206.102 147.009 205.817 146.337 205.817 145.452ZM207.651 145.327C207.651 145.786 207.784 146.149 208.05 146.415C208.315 146.675 208.728 146.805 209.287 146.805C209.862 146.805 210.371 146.611 210.814 146.224C211.257 145.836 211.478 145.41 211.478 144.945V143.841H209.834C209.11 143.841 208.564 143.974 208.199 144.24C207.834 144.505 207.651 144.868 207.651 145.327ZM215.62 148V139.334H217.313L217.372 140.413H217.413C217.695 140.031 218.061 139.73 218.509 139.508C218.963 139.281 219.466 139.168 220.02 139.168C220.894 139.168 221.597 139.417 222.128 139.915C222.659 140.413 222.925 141.26 222.925 142.455V148H221.099V142.438C221.099 141.791 220.955 141.332 220.667 141.061C220.385 140.784 219.981 140.646 219.455 140.646C219.012 140.646 218.614 140.767 218.26 141.011C217.911 141.254 217.64 141.578 217.446 141.982V148H215.62ZM224.66 143.8V143.534C224.66 142.261 224.994 141.215 225.664 140.396C226.334 139.577 227.219 139.168 228.32 139.168C228.907 139.168 229.41 139.273 229.831 139.483C230.252 139.694 230.581 139.97 230.819 140.313V135.308H232.645V148H230.952L230.894 146.904H230.852C230.642 147.258 230.315 147.557 229.873 147.801C229.43 148.044 228.915 148.166 228.329 148.166C227.205 148.166 226.312 147.757 225.647 146.938C224.989 146.118 224.66 145.073 224.66 143.8ZM226.527 143.841C226.527 144.666 226.707 145.352 227.067 145.9C227.427 146.448 227.986 146.722 228.744 146.722C229.253 146.722 229.684 146.583 230.039 146.307C230.398 146.024 230.658 145.703 230.819 145.344V141.99C230.658 141.625 230.401 141.304 230.047 141.027C229.698 140.751 229.264 140.612 228.744 140.612C227.991 140.612 227.432 140.886 227.067 141.434C226.707 141.982 226.527 142.671 226.527 143.501V143.841ZM234.455 143.8V143.534C234.455 142.217 234.828 141.149 235.575 140.33C236.322 139.506 237.296 139.093 238.497 139.093C239.709 139.093 240.647 139.478 241.311 140.247C241.975 141.016 242.307 142.062 242.307 143.385V144.09H235.617V142.779H240.481V142.596C240.481 142.015 240.315 141.523 239.983 141.119C239.651 140.709 239.169 140.504 238.539 140.504C237.797 140.504 237.238 140.787 236.862 141.351C236.486 141.916 236.297 142.627 236.297 143.484V143.841C236.297 144.699 236.497 145.41 236.895 145.975C237.293 146.534 237.899 146.813 238.713 146.813C239.233 146.813 239.681 146.697 240.058 146.464C240.434 146.226 240.738 145.947 240.971 145.626L242.208 146.506C241.936 146.96 241.499 147.364 240.896 147.718C240.298 148.072 239.576 148.249 238.729 148.249C237.368 148.249 236.314 147.837 235.567 147.012C234.825 146.188 234.455 145.117 234.455 143.8ZM243.013 148L246.316 143.152L246.516 143.144L248.915 139.334H250.824L247.694 144.057L247.503 144.065L244.922 148H243.013ZM243.195 139.334H245.287L247.694 143.136L247.761 143.144L251.056 148H248.973L246.416 144.057L246.35 144.049L243.195 139.334Z" fill="black"/>
<defs>
<clipPath id="clip0_17_404">
<rect width="32" height="32" fill="white" transform="translate(100.5 50)"/>
</clipPath>
</defs>
</svg>
