<svg width="76" height="49" viewBox="0 0 76 49" fill="none" xmlns="http://www.w3.org/2000/svg">
<path d="M22.1523 44L18.4668 39.6641L19.4336 39.1777L23.5645 44H22.1523ZM17.582 39.125H18.8125L22.0059 35.4688H23.3184L19.2812 40.0742H17.582V39.125ZM17.0078 44V35.4688H18.1562V44H17.0078ZM23.9805 42.166C23.9805 41.5332 24.2344 41.041 24.7422 40.6895C25.2539 40.334 25.9043 40.1562 26.6934 40.1562H28.1348V39.7109C28.1348 39.3438 28.0352 39.0469 27.8359 38.8203C27.6367 38.5898 27.2949 38.4746 26.8105 38.4746C26.3262 38.4746 25.9785 38.5723 25.7676 38.7676C25.5605 38.9629 25.457 39.1895 25.457 39.4473V39.4766H24.3496V39.4473C24.3496 38.9512 24.5742 38.5176 25.0234 38.1465C25.4727 37.7754 26.0781 37.5898 26.8398 37.5898C27.6055 37.5898 28.1973 37.7676 28.6152 38.123C29.0371 38.4785 29.248 39.0078 29.248 39.7109V42.5938C29.248 42.8477 29.2676 43.0879 29.3066 43.3145C29.3457 43.5371 29.4023 43.7344 29.4766 43.9062V44H28.3984C28.3398 43.9023 28.2871 43.7734 28.2402 43.6133C28.1973 43.4531 28.1699 43.2949 28.1582 43.1387C28.0098 43.3965 27.7676 43.625 27.4316 43.8242C27.0996 44.0195 26.6699 44.1172 26.1426 44.1172C25.5449 44.1172 25.0352 43.9492 24.6133 43.6133C24.1914 43.2773 23.9805 42.7949 23.9805 42.166ZM25.0938 42.1074C25.0938 42.459 25.1992 42.7344 25.4102 42.9336C25.6211 43.1289 25.9473 43.2266 26.3887 43.2266C26.834 43.2266 27.2363 43.0781 27.5957 42.7812C27.9551 42.4844 28.1348 42.1699 28.1348 41.8379V40.9531H26.8105C26.248 40.9531 25.8203 41.0566 25.5273 41.2637C25.2383 41.4707 25.0938 41.752 25.0938 42.1074ZM30.291 38.6445V37.7656H35.3535V38.6445H33.3789V44H32.2656V38.6445H30.291ZM36.0742 42.166C36.0742 41.5332 36.3281 41.041 36.8359 40.6895C37.3477 40.334 37.998 40.1562 38.7871 40.1562H40.2285V39.7109C40.2285 39.3438 40.1289 39.0469 39.9297 38.8203C39.7305 38.5898 39.3887 38.4746 38.9043 38.4746C38.4199 38.4746 38.0723 38.5723 37.8613 38.7676C37.6543 38.9629 37.5508 39.1895 37.5508 39.4473V39.4766H36.4434V39.4473C36.4434 38.9512 36.668 38.5176 37.1172 38.1465C37.5664 37.7754 38.1719 37.5898 38.9336 37.5898C39.6992 37.5898 40.291 37.7676 40.709 38.123C41.1309 38.4785 41.3418 39.0078 41.3418 39.7109V42.5938C41.3418 42.8477 41.3613 43.0879 41.4004 43.3145C41.4395 43.5371 41.4961 43.7344 41.5703 43.9062V44H40.4922C40.4336 43.9023 40.3809 43.7734 40.334 43.6133C40.291 43.4531 40.2637 43.2949 40.252 43.1387C40.1035 43.3965 39.8613 43.625 39.5254 43.8242C39.1934 44.0195 38.7637 44.1172 38.2363 44.1172C37.6387 44.1172 37.1289 43.9492 36.707 43.6133C36.2852 43.2773 36.0742 42.7949 36.0742 42.166ZM37.1875 42.1074C37.1875 42.459 37.293 42.7344 37.5039 42.9336C37.7148 43.1289 38.041 43.2266 38.4824 43.2266C38.9277 43.2266 39.3301 43.0781 39.6895 42.7812C40.0488 42.4844 40.2285 42.1699 40.2285 41.8379V40.9531H38.9043C38.3418 40.9531 37.9141 41.0566 37.6211 41.2637C37.332 41.4707 37.1875 41.752 37.1875 42.1074ZM44.6348 38.6445L44.5234 41.1289C44.4805 42.1797 44.3438 42.9414 44.1133 43.4141C43.8867 43.8867 43.4785 44.123 42.8887 44.123C42.752 44.123 42.6289 44.1133 42.5195 44.0938C42.4141 44.0781 42.3242 44.0527 42.25 44.0176V43.0566C42.3164 43.084 42.3848 43.1035 42.4551 43.1152C42.5293 43.127 42.6094 43.1328 42.6953 43.1328C42.9961 43.1328 43.1973 42.9805 43.2988 42.6758C43.4043 42.3672 43.4746 41.8008 43.5098 40.9766L43.6445 37.7656H48.0449V44H46.9316V38.6445H44.6348ZM49.4277 40.9766V40.7891C49.4277 39.8477 49.6992 39.0801 50.2422 38.4863C50.7852 37.8887 51.5098 37.5898 52.416 37.5898C53.3223 37.5898 54.0469 37.8887 54.5898 38.4863C55.1328 39.0801 55.4043 39.8477 55.4043 40.7891V40.9766C55.4043 41.918 55.1328 42.6875 54.5898 43.2852C54.0469 43.8789 53.3223 44.1758 52.416 44.1758C51.5098 44.1758 50.7852 43.8789 50.2422 43.2852C49.6992 42.6875 49.4277 41.918 49.4277 40.9766ZM50.5645 40.7891V40.9766C50.5645 41.6133 50.7188 42.1523 51.0273 42.5938C51.3398 43.0352 51.8027 43.2559 52.416 43.2559C53.0293 43.2559 53.4902 43.0352 53.7988 42.5938C54.1074 42.1523 54.2617 41.6133 54.2617 40.9766V40.7891C54.2617 40.1484 54.1074 39.6074 53.7988 39.166C53.4902 38.7246 53.0293 38.5039 52.416 38.5039C51.8027 38.5039 51.3398 38.7246 51.0273 39.166C50.7188 39.6074 50.5645 40.1484 50.5645 40.7891ZM56.7695 37.7656H60.7949V38.6445H57.8828V44H56.7695V37.7656Z" fill="#B8C1CC"/>
<path d="M29 23.4792V8.52083C29 7.12862 30.1286 6 31.5208 6H44.4792C45.8714 6 47 7.12862 47 8.52083V23.4792C47 24.8714 45.8714 26 44.4792 26H31.5208C30.1286 26 29 24.8714 29 23.4792Z" stroke="#B8C1CC" stroke-width="2"/>
<path d="M33 16V11H38V16H33Z" stroke="#B8C1CC" stroke-width="2" stroke-linejoin="round"/>
<path d="M42 11H43" stroke="#B8C1CC" stroke-width="2" stroke-linecap="round"/>
<path d="M42 16H43" stroke="#B8C1CC" stroke-width="2" stroke-linecap="round"/>
<path d="M33 21L43 21" stroke="#B8C1CC" stroke-width="2" stroke-linecap="round"/>
</svg>
