<svg width="76" height="49" viewBox="0 0 76 49" fill="none" xmlns="http://www.w3.org/2000/svg">
<path d="M16.2344 44V35.4688H21.5312V36.418H17.3828V44H16.2344ZM24.1973 38.6445L24.0859 41.1289C24.043 42.1797 23.9062 42.9414 23.6758 43.4141C23.4492 43.8867 23.041 44.123 22.4512 44.123C22.3145 44.123 22.1914 44.1133 22.082 44.0938C21.9766 44.0781 21.8867 44.0527 21.8125 44.0176V43.0566C21.8789 43.084 21.9473 43.1035 22.0176 43.1152C22.0918 43.127 22.1719 43.1328 22.2578 43.1328C22.5586 43.1328 22.7598 42.9805 22.8613 42.6758C22.9668 42.3672 23.0371 41.8008 23.0723 40.9766L23.207 37.7656H27.6074V44H26.4941V38.6445H24.1973ZM29.0195 42.166C29.0195 41.5332 29.2734 41.041 29.7812 40.6895C30.293 40.334 30.9434 40.1562 31.7324 40.1562H33.1738V39.7109C33.1738 39.3438 33.0742 39.0469 32.875 38.8203C32.6758 38.5898 32.334 38.4746 31.8496 38.4746C31.3652 38.4746 31.0176 38.5723 30.8066 38.7676C30.5996 38.9629 30.4961 39.1895 30.4961 39.4473V39.4766H29.3887V39.4473C29.3887 38.9512 29.6133 38.5176 30.0625 38.1465C30.5117 37.7754 31.1172 37.5898 31.8789 37.5898C32.6445 37.5898 33.2363 37.7676 33.6543 38.123C34.0762 38.4785 34.2871 39.0078 34.2871 39.7109V42.5938C34.2871 42.8477 34.3066 43.0879 34.3457 43.3145C34.3848 43.5371 34.4414 43.7344 34.5156 43.9062V44H33.4375C33.3789 43.9023 33.3262 43.7734 33.2793 43.6133C33.2363 43.4531 33.209 43.2949 33.1973 43.1387C33.0488 43.3965 32.8066 43.625 32.4707 43.8242C32.1387 44.0195 31.709 44.1172 31.1816 44.1172C30.584 44.1172 30.0742 43.9492 29.6523 43.6133C29.2305 43.2773 29.0195 42.7949 29.0195 42.166ZM30.1328 42.1074C30.1328 42.459 30.2383 42.7344 30.4492 42.9336C30.6602 43.1289 30.9863 43.2266 31.4277 43.2266C31.873 43.2266 32.2754 43.0781 32.6348 42.7812C32.9941 42.4844 33.1738 42.1699 33.1738 41.8379V40.9531H31.8496C31.2871 40.9531 30.8594 41.0566 30.5664 41.2637C30.2773 41.4707 30.1328 41.752 30.1328 42.1074ZM36.0039 44V37.7656H38.6934C39.3848 37.7656 39.9297 37.9043 40.3281 38.1816C40.7305 38.4551 40.9316 38.8711 40.9316 39.4297C40.9316 39.7812 40.8262 40.0742 40.6152 40.3086C40.4082 40.543 40.1289 40.6992 39.7773 40.7773V40.7949C40.207 40.8574 40.543 41.0098 40.7852 41.252C41.0312 41.4941 41.1543 41.8047 41.1543 42.1836C41.1543 42.7578 40.9453 43.2051 40.5273 43.5254C40.1094 43.8418 39.5586 44 38.875 44H36.0039ZM37.1172 40.3965H38.6934C39.0879 40.3965 39.3711 40.3164 39.543 40.1562C39.7188 39.9922 39.8066 39.7695 39.8066 39.4883C39.8066 39.2109 39.7188 39.002 39.543 38.8613C39.3711 38.7207 39.0879 38.6484 38.6934 38.6445H37.1172V40.3965ZM37.1172 43.1211H38.875C39.2734 43.1211 39.5664 43.0371 39.7539 42.8691C39.9414 42.6973 40.0352 42.4688 40.0352 42.1836C40.0352 41.9062 39.9414 41.6836 39.7539 41.5156C39.5703 41.3477 39.2773 41.2637 38.875 41.2637H37.1172V43.1211ZM42.6133 37.7656H43.7266V40.3848H46.5801V37.7656H47.6934V44H46.5801V41.2637H43.7266V44H42.6133V37.7656ZM49.0938 42.166C49.0938 41.5332 49.3477 41.041 49.8555 40.6895C50.3672 40.334 51.0176 40.1562 51.8066 40.1562H53.248V39.7109C53.248 39.3438 53.1484 39.0469 52.9492 38.8203C52.75 38.5898 52.4082 38.4746 51.9238 38.4746C51.4395 38.4746 51.0918 38.5723 50.8809 38.7676C50.6738 38.9629 50.5703 39.1895 50.5703 39.4473V39.4766H49.4629V39.4473C49.4629 38.9512 49.6875 38.5176 50.1367 38.1465C50.5859 37.7754 51.1914 37.5898 51.9531 37.5898C52.7188 37.5898 53.3105 37.7676 53.7285 38.123C54.1504 38.4785 54.3613 39.0078 54.3613 39.7109V42.5938C54.3613 42.8477 54.3809 43.0879 54.4199 43.3145C54.459 43.5371 54.5156 43.7344 54.5898 43.9062V44H53.5117C53.4531 43.9023 53.4004 43.7734 53.3535 43.6133C53.3105 43.4531 53.2832 43.2949 53.2715 43.1387C53.123 43.3965 52.8809 43.625 52.5449 43.8242C52.2129 44.0195 51.7832 44.1172 51.2559 44.1172C50.6582 44.1172 50.1484 43.9492 49.7266 43.6133C49.3047 43.2773 49.0938 42.7949 49.0938 42.166ZM50.207 42.1074C50.207 42.459 50.3125 42.7344 50.5234 42.9336C50.7344 43.1289 51.0605 43.2266 51.502 43.2266C51.9473 43.2266 52.3496 43.0781 52.709 42.7812C53.0684 42.4844 53.248 42.1699 53.248 41.8379V40.9531H51.9238C51.3613 40.9531 50.9336 41.0566 50.6406 41.2637C50.3516 41.4707 50.207 41.752 50.207 42.1074ZM56.9102 44H55.6797L57.5488 41.3398L58.6738 41.4395L56.9102 44ZM59.7754 44V41.7441H58.3633L58.2578 41.6738C57.5039 41.6738 56.9238 41.502 56.5176 41.1582C56.1113 40.8145 55.9082 40.3496 55.9082 39.7637C55.9082 39.1582 56.1133 38.6738 56.5234 38.3105C56.9336 37.9473 57.5195 37.7656 58.2812 37.7656H60.8887V44H59.7754ZM58.2812 40.8652H59.7754V38.6445H58.2812C57.8203 38.6445 57.4961 38.75 57.3086 38.9609C57.1211 39.1719 57.0273 39.4395 57.0273 39.7637C57.0273 40.0879 57.1191 40.3535 57.3027 40.5605C57.4902 40.7637 57.8164 40.8652 58.2812 40.8652Z" fill="#1A6FEE"/>
<path d="M49.4806 15.7731L45.809 12.6242V8.37346C45.809 8.11247 45.5976 7.90104 45.3368 7.90104H42.8776C42.6166 7.90104 42.4052 8.11247 42.4052 8.37346V9.70233L38.3149 6.19452C38.1357 6.03412 37.8644 6.03412 37.6852 6.19452L26.5196 15.7733C26.3682 15.9027 26.3143 16.1134 26.3848 16.2996C26.4554 16.4859 26.6353 16.608 26.8345 16.6046H30.1912V25.4464C30.1912 25.7074 30.4027 25.9189 30.6634 25.9189H32.3072C32.568 25.9189 32.7796 25.7074 32.7796 25.4464C32.7796 25.1857 32.568 24.9743 32.3072 24.9743H31.1358V16.1324C31.1358 15.8717 30.9244 15.6602 30.6634 15.6602H28.1036L38.0005 7.18398L47.8974 15.6602H45.3373C45.0763 15.6602 44.8649 15.8717 44.8649 16.1324V24.9743H43.6903C43.4296 24.9743 43.2182 25.1857 43.2182 25.4464C43.2182 25.7074 43.4296 25.9189 43.6903 25.9189H45.3373C45.5981 25.9189 45.8095 25.7074 45.8095 25.4464V16.6046H49.1757C49.3749 16.608 49.5548 16.4859 49.6254 16.2996C49.6959 16.1134 49.642 15.9027 49.4906 15.7733L49.4806 15.7731ZM43.3529 8.84564H44.8644V11.8149L43.3529 10.5178V8.84564ZM42.4084 17.7319H33.5915C33.3308 17.7319 33.1191 17.9433 33.1191 18.2043V26.3912C33.1191 26.6522 33.3308 26.8636 33.5915 26.8636H42.4084C42.6694 26.8636 42.8808 26.6522 42.8808 26.3912V18.2043C42.8808 17.9433 42.6694 17.7319 42.4084 17.7319ZM38.6708 18.6765V20.8586L38.5607 20.7924L38.5605 20.7927C38.3739 20.6801 38.1344 20.7101 37.9811 20.8649L37.5529 21.2963L37.3324 21.0444V18.6767L38.6708 18.6765ZM41.9394 25.919H34.0675V18.6765H36.3912V21.2209C36.3903 21.3366 36.4318 21.4487 36.5077 21.5356L37.1783 22.2978C37.2648 22.3959 37.3878 22.454 37.5184 22.4582C37.6449 22.4589 37.7662 22.4091 37.8553 22.3198L38.378 21.7907L38.8851 22.1056C39.0306 22.1928 39.2118 22.195 39.3595 22.1118C39.5072 22.0285 39.599 21.8723 39.6 21.7026V18.6767H41.9364L41.9394 25.919Z" fill="#1A6FEE"/>
</svg>
