<svg width="75" height="49" viewBox="0 0 75 49" fill="none" xmlns="http://www.w3.org/2000/svg">
<path d="M13.4785 44V35.4688H20.0469V44H18.8984V36.4238H14.627V44H13.4785ZM21.916 46.4375V37.7656H22.9238L22.9707 38.5742H23.0059C23.166 38.3203 23.4121 38.1035 23.7441 37.9238C24.0801 37.7402 24.4707 37.6484 24.916 37.6484C25.7168 37.6484 26.3574 37.9453 26.8379 38.5391C27.3184 39.1289 27.5586 39.8789 27.5586 40.7891V40.9766C27.5586 41.8828 27.3184 42.6328 26.8379 43.2266C26.3574 43.8203 25.7168 44.1172 24.916 44.1172C24.4707 44.1172 24.0918 44.0391 23.7793 43.8828C23.4668 43.7266 23.2168 43.5195 23.0293 43.2617V46.4375H21.916ZM23.0293 42.1367C23.1543 42.4102 23.3574 42.6562 23.6387 42.875C23.9238 43.0898 24.2676 43.1973 24.6699 43.1973C25.2754 43.1973 25.7188 42.9844 26 42.5586C26.2812 42.1289 26.4219 41.6016 26.4219 40.9766V40.7891C26.4219 40.1602 26.2812 39.6328 26 39.207C25.7188 38.7773 25.2754 38.5625 24.6699 38.5625C24.2676 38.5625 23.9238 38.6719 23.6387 38.8906C23.3574 39.1055 23.1543 39.3516 23.0293 39.6289V42.1367ZM28.5547 40.9766V40.7891C28.5547 39.8477 28.8262 39.0801 29.3691 38.4863C29.9121 37.8887 30.6367 37.5898 31.543 37.5898C32.4492 37.5898 33.1738 37.8887 33.7168 38.4863C34.2598 39.0801 34.5312 39.8477 34.5312 40.7891V40.9766C34.5312 41.918 34.2598 42.6875 33.7168 43.2852C33.1738 43.8789 32.4492 44.1758 31.543 44.1758C30.6367 44.1758 29.9121 43.8789 29.3691 43.2852C28.8262 42.6875 28.5547 41.918 28.5547 40.9766ZM29.6914 40.7891V40.9766C29.6914 41.6133 29.8457 42.1523 30.1543 42.5938C30.4668 43.0352 30.9297 43.2559 31.543 43.2559C32.1562 43.2559 32.6172 43.0352 32.9258 42.5938C33.2344 42.1523 33.3887 41.6133 33.3887 40.9766V40.7891C33.3887 40.1484 33.2344 39.6074 32.9258 39.166C32.6172 38.7246 32.1562 38.5039 31.543 38.5039C30.9297 38.5039 30.4668 38.7246 30.1543 39.166C29.8457 39.6074 29.6914 40.1484 29.6914 40.7891ZM36.6641 40.9766C36.6641 41.6289 36.8301 42.1621 37.1621 42.5762C37.498 42.9902 38.0469 43.2168 38.8086 43.2559V38.5039C38.0469 38.5469 37.498 38.7754 37.1621 39.1895C36.8301 39.6035 36.6641 40.1367 36.6641 40.7891V40.9766ZM42.0605 40.7891C42.0605 40.1367 41.8945 39.6035 41.5625 39.1895C41.2305 38.7754 40.6836 38.5469 39.9219 38.5039V43.2559C40.6836 43.2168 41.2305 42.9902 41.5625 42.5762C41.8945 42.1621 42.0605 41.6289 42.0605 40.9766V40.7891ZM38.8086 44.1758C37.7578 44.1367 36.9473 43.832 36.377 43.2617C35.8105 42.6914 35.5273 41.9297 35.5273 40.9766V40.7891C35.5273 39.8359 35.8105 39.0742 36.377 38.5039C36.9473 37.9336 37.7578 37.6289 38.8086 37.5898V35H39.9219V37.5898C40.9688 37.6289 41.7754 37.9336 42.3418 38.5039C42.9121 39.0742 43.1973 39.8359 43.1973 40.7891V40.9766C43.1973 41.9297 42.9121 42.6914 42.3418 43.2617C41.7754 43.832 40.9688 44.1367 39.9219 44.1758V46.4375H38.8086V44.1758ZM44.5684 44V37.7656H45.6699V41.6328C45.6699 41.75 45.668 41.8828 45.6641 42.0312C45.6641 42.1797 45.6621 42.3125 45.6582 42.4297H45.7109C45.7656 42.332 45.8262 42.2246 45.8926 42.1074C45.9629 41.9902 46.0371 41.8711 46.1152 41.75L48.623 37.7656H49.7422V44H48.6406V40.1387C48.6406 40.0215 48.6426 39.8867 48.6465 39.7344C48.6543 39.5781 48.6602 39.4395 48.6641 39.3184H48.5938C48.543 39.4199 48.4824 39.5332 48.4121 39.6582C48.3457 39.7793 48.2734 39.9004 48.1953 40.0215L45.6875 44H44.5684ZM53.0586 38.6445L52.9473 41.1289C52.9043 42.1797 52.7676 42.9414 52.5371 43.4141C52.3105 43.8867 51.9023 44.123 51.3125 44.123C51.1758 44.123 51.0527 44.1133 50.9434 44.0938C50.8379 44.0781 50.748 44.0527 50.6738 44.0176V43.0566C50.7402 43.084 50.8086 43.1035 50.8789 43.1152C50.9531 43.127 51.0332 43.1328 51.1191 43.1328C51.4199 43.1328 51.6211 42.9805 51.7227 42.6758C51.8281 42.3672 51.8984 41.8008 51.9336 40.9766L52.0684 37.7656H56.4688V44H55.3555V38.6445H53.0586ZM59.334 37.7656V39.9102H60.7461C61.5195 39.9102 62.1152 40.0938 62.5332 40.4609C62.9512 40.8242 63.1602 41.3184 63.1602 41.9434C63.1602 42.5645 62.9512 43.0625 62.5332 43.4375C62.1152 43.8125 61.5195 44 60.7461 44H58.2207V37.7656H59.334ZM60.7461 40.7891H59.334V43.1211H60.7461C61.2227 43.1211 61.5566 43.0098 61.748 42.7871C61.9434 42.5645 62.041 42.2832 62.041 41.9434C62.041 41.6074 61.9434 41.332 61.748 41.1172C61.5566 40.8984 61.2227 40.7891 60.7461 40.7891Z" fill="#B8C1CC"/>
<circle cx="38" cy="10" r="4" stroke="#B8C1CC" stroke-width="2"/>
<path d="M38 17C42.502 17 46 20.3261 46 24.25V24.251C45.9999 24.2515 45.9998 24.2532 45.999 24.2559C45.9972 24.2618 45.9904 24.2774 45.9736 24.3037C45.9374 24.3605 45.8584 24.4538 45.7002 24.5703C45.3764 24.8086 44.8409 25.0606 44.0811 25.2852C42.5734 25.7307 40.4252 26 38 26C35.5748 26 33.4266 25.7307 31.9189 25.2852C31.1591 25.0606 30.6236 24.8086 30.2998 24.5703C30.1416 24.4538 30.0626 24.3605 30.0264 24.3037C30.0096 24.2774 30.0028 24.2618 30.001 24.2559C30 24.2528 30 24.2502 30 24.25C30 20.3261 33.498 17 38 17Z" stroke="#B8C1CC" stroke-width="2"/>
</svg>
