<svg width="76" height="49" viewBox="0 0 76 49" fill="none" xmlns="http://www.w3.org/2000/svg">
<path d="M14.334 44V35.4688H20.9023V44H19.7539V36.4238H15.4824V44H14.334ZM22.7715 46.4375V37.7656H23.7793L23.8262 38.5742H23.8613C24.0215 38.3203 24.2676 38.1035 24.5996 37.9238C24.9355 37.7402 25.3262 37.6484 25.7715 37.6484C26.5723 37.6484 27.2129 37.9453 27.6934 38.5391C28.1738 39.1289 28.4141 39.8789 28.4141 40.7891V40.9766C28.4141 41.8828 28.1738 42.6328 27.6934 43.2266C27.2129 43.8203 26.5723 44.1172 25.7715 44.1172C25.3262 44.1172 24.9473 44.0391 24.6348 43.8828C24.3223 43.7266 24.0723 43.5195 23.8848 43.2617V46.4375H22.7715ZM23.8848 42.1367C24.0098 42.4102 24.2129 42.6562 24.4941 42.875C24.7793 43.0898 25.123 43.1973 25.5254 43.1973C26.1309 43.1973 26.5742 42.9844 26.8555 42.5586C27.1367 42.1289 27.2773 41.6016 27.2773 40.9766V40.7891C27.2773 40.1602 27.1367 39.6328 26.8555 39.207C26.5742 38.7773 26.1309 38.5625 25.5254 38.5625C25.123 38.5625 24.7793 38.6719 24.4941 38.8906C24.2129 39.1055 24.0098 39.3516 23.8848 39.6289V42.1367ZM29.4102 40.9766V40.7891C29.4102 39.8477 29.6816 39.0801 30.2246 38.4863C30.7676 37.8887 31.4922 37.5898 32.3984 37.5898C33.3047 37.5898 34.0293 37.8887 34.5723 38.4863C35.1152 39.0801 35.3867 39.8477 35.3867 40.7891V40.9766C35.3867 41.918 35.1152 42.6875 34.5723 43.2852C34.0293 43.8789 33.3047 44.1758 32.3984 44.1758C31.4922 44.1758 30.7676 43.8789 30.2246 43.2852C29.6816 42.6875 29.4102 41.918 29.4102 40.9766ZM30.5469 40.7891V40.9766C30.5469 41.6133 30.7012 42.1523 31.0098 42.5938C31.3223 43.0352 31.7852 43.2559 32.3984 43.2559C33.0117 43.2559 33.4727 43.0352 33.7812 42.5938C34.0898 42.1523 34.2441 41.6133 34.2441 40.9766V40.7891C34.2441 40.1484 34.0898 39.6074 33.7812 39.166C33.4727 38.7246 33.0117 38.5039 32.3984 38.5039C31.7852 38.5039 31.3223 38.7246 31.0098 39.166C30.7012 39.6074 30.5469 40.1484 30.5469 40.7891ZM36.3828 40.9766V40.7891C36.3828 39.8477 36.6445 39.0801 37.168 38.4863C37.6914 37.8887 38.3848 37.5898 39.248 37.5898C40.1113 37.5898 40.7754 37.8691 41.2402 38.4277C41.709 38.9824 41.9434 39.7344 41.9434 40.6836V41.1406H37.0684V40.2559H40.8184V40.168C40.8184 39.6992 40.6914 39.3047 40.4375 38.9844C40.1836 38.6641 39.7969 38.5039 39.2773 38.5039C38.6953 38.5039 38.2559 38.7246 37.959 39.166C37.666 39.6074 37.5195 40.1484 37.5195 40.7891V40.9766C37.5195 41.6172 37.6738 42.1582 37.9824 42.5996C38.2949 43.041 38.7773 43.2617 39.4297 43.2617C39.832 43.2617 40.1777 43.1758 40.4668 43.0039C40.7559 42.832 40.9902 42.6289 41.1699 42.3945L41.8906 42.9746C41.6914 43.2676 41.3809 43.541 40.959 43.7949C40.541 44.0488 40.0312 44.1758 39.4297 44.1758C38.4453 44.1758 37.6914 43.8789 37.168 43.2852C36.6445 42.6875 36.3828 41.918 36.3828 40.9766ZM47.2812 44L44.8203 41.1406L45.5117 40.4023L48.6582 44H47.2812ZM43.7891 40.3848H44.8848L47.1172 37.7656H48.4121L45.4004 41.2637H43.7891V40.3848ZM44.3457 37.7656V44H43.2324V37.7656H44.3457ZM48.8047 38.6445V37.7656H53.8672V38.6445H51.8926V44H50.7793V38.6445H48.8047ZM56.041 37.7656V39.9102H57.4531C58.2266 39.9102 58.8223 40.0938 59.2402 40.4609C59.6582 40.8242 59.8672 41.3184 59.8672 41.9434C59.8672 42.5645 59.6582 43.0625 59.2402 43.4375C58.8223 43.8125 58.2266 44 57.4531 44H54.9277V37.7656H56.041ZM57.4531 40.7891H56.041V43.1211H57.4531C57.9297 43.1211 58.2637 43.0098 58.4551 42.7871C58.6504 42.5645 58.748 42.2832 58.748 41.9434C58.748 41.6074 58.6504 41.332 58.4551 41.1172C58.2637 40.8984 57.9297 40.7891 57.4531 40.7891ZM60.6816 44V37.7656H61.7949V44H60.6816Z" fill="#B8C1CC"/>
<path d="M34.3685 6.8371H29.683C29.4561 6.8371 29.3051 6.98716 29.3051 7.21206V11.8245C29.3051 12.0496 29.4563 12.1995 29.683 12.1995H34.3308C34.5576 12.1995 34.7086 12.0494 34.7086 11.8245V7.21206C34.7463 6.98697 34.5574 6.8371 34.3685 6.8371ZM33.9906 11.4495H30.0608V7.58705H33.9529V11.4495H33.9906Z" fill="#B8C1CC"/>
<path d="M34.3685 14.2997H29.683C29.4561 14.2997 29.3051 14.4498 29.3051 14.6747V19.2871C29.3051 19.5122 29.4563 19.6621 29.683 19.6621H34.3308C34.5576 19.6621 34.7086 19.512 34.7086 19.2871V14.6747C34.7463 14.4872 34.5574 14.2997 34.3685 14.2997ZM33.9906 18.9496H30.0608V15.0496H33.9529V18.9496H33.9906Z" fill="#B8C1CC"/>
<path d="M34.3685 21.7997H29.683C29.4561 21.7997 29.3051 21.9497 29.3051 22.1746V26.7871C29.3051 27.0122 29.4563 27.162 29.683 27.162H34.3308C34.5576 27.162 34.7086 27.012 34.7086 26.7871V22.1746C34.7463 21.9872 34.5574 21.7997 34.3685 21.7997ZM33.9906 26.4121H30.0608V22.5496H33.9529V26.4121H33.9906Z" fill="#B8C1CC"/>
<path d="M31.1938 10.662C31.2694 10.737 31.3827 10.7744 31.4583 10.7744C31.5716 10.7744 31.6473 10.737 31.7229 10.662L33.5367 8.86197C33.6879 8.7119 33.6879 8.487 33.5367 8.33691C33.3855 8.18685 33.1588 8.18685 33.0076 8.33691L31.4583 9.87439L31.0426 9.46182C30.8914 9.31175 30.6647 9.31175 30.5135 9.46182C30.3623 9.61188 30.3623 9.83678 30.5135 9.98687L31.1938 10.662Z" fill="#B8C1CC"/>
<path d="M31.1938 18.162C31.2694 18.237 31.345 18.2744 31.4583 18.2744C31.5716 18.2744 31.6473 18.237 31.7229 18.162L33.5367 16.362C33.6879 16.2119 33.6879 15.987 33.5367 15.8369C33.3855 15.6868 33.1588 15.6868 33.0076 15.8369L31.4583 17.3744L31.0426 16.9618C30.8914 16.8118 30.6647 16.8118 30.5135 16.9618C30.3623 17.1119 30.3623 17.3368 30.5135 17.4869L31.1938 18.162Z" fill="#B8C1CC"/>
<path d="M31.1938 25.6619C31.2694 25.7369 31.3827 25.7744 31.4583 25.7744C31.5716 25.7744 31.6473 25.7369 31.7229 25.6619L33.5367 23.8619C33.6879 23.7118 33.6879 23.4869 33.5367 23.3369C33.3855 23.1868 33.1588 23.1868 33.0076 23.3369L31.4583 24.8743L31.0426 24.4618C30.8914 24.3117 30.6647 24.3117 30.5135 24.4618C30.3623 24.6118 30.3623 24.8367 30.5135 24.9868L31.1938 25.6619Z" fill="#B8C1CC"/>
<path d="M50.6547 18.4621H46.4225C46.1957 18.4621 46.0446 18.6122 46.0446 18.8371C45.2889 18.5746 45.5535 18.7246 45.1754 18.5371L45.1756 10.8873C45.1756 10.7749 45.1379 10.6998 45.0623 10.6248L39.5076 5.11245C39.432 5.03761 39.3187 5 39.2431 5H27.3778C27.151 5 27 5.15006 27 5.37496V28.625C27 28.8501 27.1512 29 27.3778 29H44.7601C44.987 29 45.138 28.8499 45.138 28.625V26.4501H46.0072C46.0449 26.6376 46.1961 26.75 46.385 26.75H50.6173C50.8441 26.75 50.9952 26.6 50.9952 26.3751V18.8378C51.0329 18.6129 50.8439 18.4628 50.655 18.4628L50.6547 18.4621ZM46.0446 19.587V25.6997H38.7519C38.2228 25.6997 38.1852 25.2871 38.1852 25.1746C38.1852 25.0245 38.2229 24.9121 38.2985 24.7996C38.3741 24.6872 38.5253 24.6496 38.6763 24.6496C38.9031 24.6496 39.0542 24.4995 39.0542 24.2746C39.0542 24.0495 38.903 23.8996 38.6763 23.8996H38.1472C37.6182 23.8996 37.5805 23.4871 37.5805 23.3746C37.5805 23.1871 37.6938 22.8495 38.1096 22.8495C38.2985 22.8495 38.4497 22.6995 38.4874 22.512C38.4874 22.3245 38.3741 22.137 38.1852 22.0994H37.9206C37.316 22.1368 37.0893 22.0244 37.0138 21.7245C36.9761 21.5744 37.0138 21.3869 37.0894 21.2745C37.2027 21.162 37.3539 21.087 37.5051 21.087C37.7319 21.087 37.8829 20.9369 37.8829 20.712C37.8829 20.4869 37.7317 20.337 37.5051 20.337H36.9384C36.5226 20.337 36.4093 19.9995 36.4093 19.812C36.4093 19.737 36.447 19.2869 36.976 19.2869H39.6211C40.2258 19.2869 40.717 19.0244 40.9438 18.6119C41.1327 18.1993 41.2083 17.4868 40.3391 16.3619C40.0369 15.9869 39.9234 15.4993 40.0746 15.1244C40.2635 14.5993 40.7926 14.3744 41.1327 14.3368C41.095 17.0742 43.8157 18.6867 45.0248 19.2494C45.0624 19.3246 46.0448 19.5871 46.0448 19.5871L46.0446 19.587ZM39.6207 6.27449L43.8907 10.5119H39.6207V6.27449ZM44.4197 28.2493H27.7933V5.74934H38.865V10.8869C38.865 11.112 39.0162 11.2618 39.2429 11.2618H44.4198V18.0868C43.2861 17.3743 41.888 16.0994 41.9258 14.3368C41.9258 14.1493 41.8502 13.9242 41.6989 13.8117C41.5477 13.6617 41.3211 13.6243 41.1322 13.6243C40.263 13.7367 39.6585 14.2243 39.394 14.8992C39.1672 15.5367 39.3184 16.2492 39.7718 16.8492C40.263 17.4493 40.4521 18.0117 40.3009 18.2743C40.1876 18.4994 39.8098 18.5368 39.6585 18.5368H37.0134C36.1442 18.5368 35.6908 19.1743 35.6908 19.8117C35.6908 20.2617 35.9553 20.7492 36.4087 20.9742C36.2575 21.2742 36.2198 21.5743 36.2954 21.9117C36.4087 22.3617 36.7112 22.6242 37.0134 22.7366C36.9001 22.9241 36.8622 23.1492 36.8622 23.3741C36.8622 23.8241 37.1267 24.3115 37.5802 24.5366C37.4669 24.7241 37.429 24.9492 37.429 25.1741C37.429 25.8116 37.8824 26.4491 38.7516 26.4491H44.4197L44.4197 28.2493ZM50.2768 26.0367H46.8004V19.2117H50.2768V26.0367Z" fill="#B8C1CC"/>
</svg>
